# xmcd
#
# Track frame offsets: 
#        150
#        12623
#        28509
#        44975
#        58261
#        78614
#        98403
#        115084
#        137370
#        161392
#        172195
#        188397
#        204059
#        221048
#        235145
#        251304
#        269553
#        283878
#        302843
#        319538
#
# Disc length: 4520 seconds
#
# Revision: 0
# Processed by: cddbd v1.5.2PL0 Copyright (c) Steve Scherf et al.
# Submitted via: ExactAudioCopy v0.95b4
#
DISCID=1811a614
DTITLE=Various Artist - Златните Хитове част 3
DYEAR=1900
DGENRE=Top 40
TTITLE0=Паша Христова - Една българска роза
TTITLE1=Йорданка Христова - Делфините
TTITLE2=Петър Чернев - Заклинание
TTITLE3=Петя Буюклиева - Жена на всички времена
TTITLE4=Маргарита Хранова и Орлин Горанов - Изгарящо чувство
TTITLE5=Маргрет Николова и Кирил Семов - Сън сънувах
TTITLE6=Герги Минчев - Бяла тишина
TTITLE7=Маргарита Хранова - Устрем
TTITLE8=Сигнал - Не казвай не
TTITLE9=Мими Иванова и Борис Годжунов - Хора и улици
TTITLE10=Деян Неделчев - Посвещение
TTITLE11=Кукери - Приказка
TTITLE12=Бисер Киров - Сонет
TTITLE13=Борис Годжунов - Каквато искаш ти бъди
TTITLE14=Мими Иванова и Стефка Оникян - В утринта
TTITLE15=Георги Христов - Аз и ти , без него
TTITLE16=Мария Нейкова - Добър вечер , лека нощ
TTITLE17=Михаил Йончев - Не го прави отново
TTITLE18=Георги Станчев - Шепот
TTITLE19=Маргрет Николова - Песен за майката
EXTD=
EXTT0=
EXTT1=
EXTT2=
EXTT3=
EXTT4=
EXTT5=
EXTT6=
EXTT7=
EXTT8=
EXTT9=
EXTT10=
EXTT11=
EXTT12=
EXTT13=
EXTT14=
EXTT15=
EXTT16=
EXTT17=
EXTT18=
EXTT19=
PLAYORDER=
